<?xml version="1.0" encoding="utf-8"?>
<!-- Generator: Adobe Illustrator 27.8.0, SVG Export Plug-In . SVG Version: 6.00 Build 0)  -->
<svg version="1.1" id="Layer_1" xmlns="http://www.w3.org/2000/svg" xmlns:xlink="http://www.w3.org/1999/xlink" x="0px" y="0px"
	 viewBox="0 0 1271.7 695.2" style="enable-background:new 0 0 1271.7 695.2;" xml:space="preserve">
<style type="text/css">
	.st0{fill:#1DA2FF;}
</style>
<g>
	<path class="st0" d="M240.4,326h-22.7c-2.6,0-4.6-0.9-6.4-2.9l-82-99.7v96.8c0,2.9-2,5.8-5.2,5.8h-16c-2.9,0-5.2-2.6-5.2-5.8V115.4
		c0-2.9,2.3-5.5,5.5-5.5h15.4c2.9,0,5.5,2.3,5.5,5.5v93.9l83.7-96.8c1.7-1.7,2.9-2.6,5.8-2.6h20.9c2.9,0,4.1,1.4,4.1,3.2
		c0,0.9-0.3,2-1.2,2.9l-87.5,98.9l87.5,104.7c0.9,0.9,1.4,2.3,1.4,3.5C244.2,324.5,243,326,240.4,326z"/>
	<path class="st0" d="M300,140.4h-14.8c-3.2,0-5.8-2.6-5.8-5.8v-23.3c0-3.2,2.6-5.8,5.8-5.8H300c3.2,0,5.8,2.6,5.8,5.8v23.3
		C305.8,137.8,303.2,140.4,300,140.4z M299.4,326h-14c-3.2,0-5.8-2.6-5.8-5.8V171.8c0-3.2,2.6-5.8,5.8-5.8h14c3.2,0,5.8,2.6,5.8,5.8
		v148.3C305.2,323.3,302.6,326,299.4,326z"/>
	<path class="st0" d="M427.9,326.5c-5.8,0.9-13.4,1.5-18.9,1.5c-26.8,0-39.5-7-39.5-39V187.5l-28.2-3.2c-3.2-0.3-5.5-2-5.5-5.2v-7.9
		c0-3.2,2.3-5.2,5.5-5.2h28.2v-28.5c0-2.9,2-5.2,5.2-5.8l15.1-2.3c0.3,0,0.6,0,0.9,0c2.3,0,4.4,2,4.4,4.9V166h31.4
		c3.2,0,5.8,2.6,5.8,5.8v9.9c0,3.2-2.6,5.8-5.8,5.8h-31.4V289c0,16,4.1,18.3,15.7,18.3H427c4.1,0,6.1,1.2,6.1,4.1v10.2
		C433.2,324.2,431.7,326,427.9,326.5z"/>
	<path class="st0" d="M550.3,324.8c-9.6,1.7-22.7,3.2-36.3,3.2c-39.5,0-61.9-27.9-61.9-70.7v-22.7c0-42.7,22.1-70.7,61.9-70.7
		c13.4,0,26.8,1.4,36.3,3.2c4.7,0.9,5.8,2.3,5.8,6.4v10.5c0,2.9-2.3,4.4-4.9,4.4c-0.6,0-0.9,0-1.2,0c-12.8-1.4-21.8-2-36.1-2
		c-23.3,0-36.4,15.4-36.4,48.3v22.7c0,32.6,12.8,48.3,36.4,48.3c14.2,0,23.3-0.6,36.1-2c0.3,0,0.6,0,1.2,0c2.6,0,4.9,1.5,4.9,4.4
		v10.5C556.2,322.2,555,323.9,550.3,324.8z"/>
	<path class="st0" d="M705.3,326h-14c-3.2,0-5.8-2.6-5.8-5.8v-95.7c0-29.1-12.2-38.1-31.1-38.1c-9,0-27.3,2.3-40.1,8.1v125.6
		c0,2.9-2.6,5.8-5.8,5.8h-14.2c-2.9,0-5.5-2.6-5.5-5.8v-207c0-3.2,2.3-5.8,5.5-5.8h14.5c3.2,0,5.5,2.6,5.5,5.8V173
		c14-6.1,32-9,44.5-9c30.8,0,52.3,17.7,52.3,60.5v95.7C711.1,323.3,708.5,326,705.3,326z"/>
	<path class="st0" d="M868.4,254.1H771v4.1c0,34.6,13.7,47.4,40.4,47.4c16.9,0,38.4-1.2,51.8-3.2c0.6,0,0.9,0,1.5,0
		c2.3,0,4.7,1.2,4.7,4.1v9.9c0,3.8-1.2,5.8-5.8,6.7c-16.6,3.2-32.6,4.9-52,4.9c-33.4,0-66-15.7-66-69.8V232c0-41.6,23-68,64.5-68
		c42.5,0,64,26.8,64,68v15.7C874,251.5,871.9,254.1,868.4,254.1z M848.1,232c0-32.9-12.5-45.6-38.1-45.6c-25,0-39,14.2-39,45.6v2.6
		h77L848.1,232L848.1,232z"/>
	<path class="st0" d="M1025.4,326h-14c-3.2,0-5.8-2.6-5.8-5.8v-95.7c0-29.4-9.9-38.4-32-38.4c-12.2,0-25.9,4.6-39.2,11.3v122.7
		c0,2.9-2.6,5.8-5.8,5.8h-14.2c-2.9,0-5.5-2.6-5.5-5.8V171.8c0-3.2,2.3-5.8,5.5-5.8h14.5c3.2,0,5.5,2.6,5.5,5.8v5.5
		c16-9,29.1-13.4,46.2-13.4c34.9,0,50.6,21.8,50.6,60.5v95.7C1031.3,323.3,1028.7,326,1025.4,326z"/>
	<path class="st0" d="M1117.6,328c-10.8,0-31.7-0.9-45.9-4.4c-3.8-0.9-6.1-2.6-6.1-5.8v-10.2c0-2.6,2.3-4.4,5.2-4.4
		c0.6,0,0.9,0,1.2,0c14,1.7,35.2,3.2,45.7,3.2c18.9,0,28.8-4.9,28.8-20.6c0-8.7-5.2-14.2-21.8-24.1l-29.4-17.4
		c-17.7-10.8-29.7-23.3-29.7-41.6c0-30.2,22.7-38.7,52.6-38.7c16.3,0,31.7,1.4,45.4,3.8c3.8,0.6,5.5,2.6,5.5,5.8v9.6
		c0,3.5-2,4.9-4.9,4.9c-0.3,0-0.6,0-0.9,0c-10.2-0.9-28.8-2.3-45.1-2.3s-27,2-27,16.9c0,8.7,6.7,14.2,20.1,22.1l28.8,17.2
		c24.1,14.2,32,26.7,32,43.9C1172,315.5,1150.2,328,1117.6,328z"/>
</g>
<g>
	<path class="st0" d="M226.7,582.2c-10.2,1.5-25,3.8-56.4,3.8c-37.5,0-70.7-9.6-70.7-62.5v-96.5c0-52.9,33.4-62.2,70.9-62.2
		c31.4,0,45.9,2.3,56.1,3.8c4.1,0.6,5.8,2,5.8,5.8v27c0,3.2-2.6,5.8-5.8,5.8h-59c-13.7,0-18.6,4.6-18.6,19.8v26.5h75.3
		c3.2,0,5.8,2.6,5.8,5.8v27.6c0,3.2-2.6,5.8-5.8,5.8h-75.3v30.8c0,15.1,4.9,19.8,18.6,19.8h59c3.2,0,5.8,2.6,5.8,5.8v27
		C232.5,579.9,230.8,581.7,226.7,582.2z"/>
	<path class="st0" d="M414.9,583.4h-43.9c-3.2,0-4.9-1.8-7.6-6.1l-28.8-45.1l-27,45.4c-2.6,4.4-4.4,5.8-7.6,5.8h-39
		c-2,0-3.2-1.5-3.2-3.5c0-0.6,0-1.5,0.6-2.3l50.9-80.8l-49.4-73.9c-0.3-0.6-0.6-1.2-0.6-1.8c0-2.3,2-4.4,4.4-4.4H307
		c3.2,0,4.9,2.3,7.6,6.1l25.9,40.1l23.8-40.1c2.6-4.4,4.4-6.1,7.6-6.1h39c2,0,3.5,1.8,3.5,3.8c0,0.9,0,1.5-0.6,2.3l-48,76.2
		l52.6,78.2c0.3,0.6,0.6,1.2,0.6,2C418.9,581.4,417.2,583.4,414.9,583.4z"/>
	<path class="st0" d="M516.6,586c-5.8,0-15.4-0.9-23.8-2v50.3c0,3.2-2.6,5.8-5.8,5.8h-35.2c-3.2,0-6.1-2.6-6.1-5.8V430.4
		c0-4.6,1.2-6.7,9-8.4c16.6-4.1,39.5-7.6,61.9-7.6c47.1,0,73,27.3,73,74.4v22.7C589.6,557.2,565.8,586,516.6,586z M542.5,488.9
		c0-20.6-5.2-35.5-25.9-35.5c-9.6,0-18.3,0.6-23.8,1.5v90.7c7,0.9,16.9,1.7,23.8,1.7c20.7,0,25.9-15.4,25.9-35.8V488.9z"/>
	<path class="st0" d="M754.2,514.8h-92.8v0.6c0,16.6,7,31.7,30,31.7c18.3,0,44.2-1.5,55.8-2.6c0.3,0,0.6,0,0.9,0
		c3.2,0,5.5,1.5,5.5,4.7v22.1c0,4.7-1.2,6.7-6.1,7.8c-18.6,4.7-34.3,7-59.6,7c-35.2,0-73-18.6-73-74.7v-20.4
		c0-46.8,27.3-76.5,73.6-76.5c47.7,0,71.8,32.6,71.8,76.5v16.9C760.3,512.2,757.9,514.8,754.2,514.8z M714.3,484.5
		c0-21.5-9.9-32.3-26.2-32.3c-16,0-26.8,11-26.8,32.3v1.2h52.9V484.5z"/>
	<path class="st0" d="M877.7,453.4h-2.3c-14.2,0-26.8,4.4-37.5,10.2v113.7c0,3.2-2.6,6.1-5.8,6.1h-35.2c-3.2,0-6.1-2.9-6.1-6.1
		V422.6c0-3.2,2.6-5.8,5.8-5.8h34.6c3.2,0,5.8,2.6,5.8,5.8v5.8c10.8-9,25.3-14,39.2-14c3.2,0,5.8,2.6,5.8,5.8v27.6
		C882.1,450.5,880.3,453.4,877.7,453.4z"/>
	<path class="st0" d="M996.4,583.7c-8.7,1.5-14.5,2.3-23,2.3c-32,0-48.8-8.4-48.8-49.7V452l-23.3-3.8c-3.2-0.6-6.1-2.9-6.1-6.1
		v-19.2c0-3.2,2.9-6.1,6.1-6.1h23.3v-23.8c0-3.2,2.6-5.2,5.8-5.8l35.5-6.1c0.3,0,0.6,0,0.9,0c2.9,0,5.2,2,5.2,4.9v30.8h23.8
		c3.2,0,5.8,2.6,5.8,5.8v23.5c0,3.2-2.6,5.8-5.8,5.8h-23.8v84.6c0,11.6,0.9,13.7,9.6,13.7h14.2c3.8,0,6.1,1.7,6.1,4.9v22.7
		C1001.9,580.8,999.9,583.1,996.4,583.7z"/>
	<path class="st0" d="M1067.9,583.4h-34c-3.2,0-6.1-2.6-6.1-5.8v-36.6c0-3.2,2.9-5.5,6.1-5.5h34c3.2,0,5.8,2.3,5.8,5.5v36.6
		C1073.7,580.8,1071.1,583.4,1067.9,583.4z"/>
</g>
</svg>
