<?xml version="1.0" encoding="utf-8"?>
<!-- Generator: Adobe Illustrator 19.0.0, SVG Export Plug-In . SVG Version: 6.00 Build 0)  -->
<svg version="1.1"
	 id="Layer_1" xmlns:dc="http://purl.org/dc/elements/1.1/" xmlns:inkscape="http://www.inkscape.org/namespaces/inkscape" xmlns:sodipodi="http://sodipodi.sourceforge.net/DTD/sodipodi-0.dtd" xmlns:svg="http://www.w3.org/2000/svg" xmlns:rdf="http://www.w3.org/1999/02/22-rdf-syntax-ns#" xmlns:cc="http://creativecommons.org/ns#"
	 xmlns="http://www.w3.org/2000/svg" xmlns:xlink="http://www.w3.org/1999/xlink" x="0px" y="0px" viewBox="-388 182.6 382 477.5"
	 style="enable-background:new -388 182.6 382 477.5;" xml:space="preserve">
<style type="text/css">
	.st0{fill:#FFFFFF;}
</style>
<g transform="translate(0,-952.36218)">
	<path class="st0" d="M-281.1,1163.1c-55.2,34.3-91.9,95.7-91.9,165.4c0,104.2,82.2,189.4,185.3,194.2v14.2h-46.3
		c-4.7,0.1-7.5,3.7-9,6.7l-9.3,32.4c-1.6,5.5,3.2,11.9,9,11.9h129.7c5.8,0.1,10.6-6.3,9-11.9l-9.3-32.4c-1.1-3.8-5-6.7-9-6.7h-46.3
		v-14.2c24.3-1.2,47.5-6.8,68.6-16.1c4.4-2,6.7-7.8,4.7-12.2c-2-4.4-7.8-6.7-12.2-4.7c-21.6,9.4-45.3,14.8-70.3,14.8
		c-97.3,0-176-78.7-176-176c0-63.2,33.3-118.6,83.2-149.7c3.6-2,5.5-6.5,4.5-10.4C-270.3,1161.6-275.7,1160.3-281.1,1163.1
		L-281.1,1163.1z M-178.5,1171c-86.9,0-157.5,70.6-157.5,157.5c0,86.9,70.6,157.5,157.5,157.5c86.9,0,157.5-70.6,157.5-157.5
		c0-64.4-38.8-119.8-94.2-144.2c-0.1,0-0.1-0.1-0.1-0.1h-0.1C-134.8,1175.8-156.1,1171-178.5,1171z M-178.5,1189.6
		c18,0,35.1,3.4,50.8,9.6c9.8,16.8,9.1,34,9.4,46.2c0.3,12.9-5.3,20.5-12.4,32c-3.8,6.2-10.5,12.1-17.2,17.9
		c-6.7,5.9-14.4,11.7-16.5,22.1c-2.4,12.1-4.2,25.6-7.8,34.9c-1.8,4.6-4.1,8.1-6.4,10.1c-2.3,2-4.6,3.2-9.1,3.2
		c-3.3,0-5.2-0.9-7.5-3c-2.4-2.1-5-5.7-7.4-10.4c-5.9-11.5-6.7-21.1-6.8-31.7c-0.1-10.5,1-22.1-1.6-35.5
		c-2.8-14.4-11.5-23.5-17.8-30.5c-6.3-7.1-9.8-11.3-9.8-18.5c0-19.2,4.7-30.6,14.6-38.6C-209.8,1192.3-194.5,1189.6-178.5,1189.6z
		 M-102.9,1211.8c38.2,24.7,63.4,67.7,63.4,116.7c0,18.9-3.7,37-10.6,53.4c-11.4-5.2-25.7-6.2-39.9-7.1c-0.2,0-0.4,0-0.6,0
		c-23.4,0-40.9,7.7-47.9,22.1c-6.9,14.3-0.9,31.6,13.5,44.6c0.1,0.1,0.2,0.2,0.3,0.3c4.1,4.1,7.9,7.1,11.4,9.4
		c-19.4,10.3-41.6,16.2-65.1,16.2c-76.8,0-138.9-62.1-138.9-138.9c0-48.8,25.1-91.6,63.1-116.4c-2,7.3-2.9,15.2-2.9,23.7
		c0,14,8,23.5,14.5,30.8s11.7,13,13.5,21.9c2,10.2,1.2,20.2,1.3,32c0.1,11.7,1.4,25.3,8.8,39.9c3,5.8,6.5,11.4,11.6,15.9
		c5.1,4.5,12.1,7.7,19.8,7.7c8.4,0,16-3,21.4-7.8c5.4-4.8,8.8-10.9,11.3-17.2c5-12.7,6.6-27,8.8-38.1c0.3-1.5,4-6.2,10.4-11.9
		c6.4-5.7,14.7-12.4,20.7-22.1c6.6-10.7,15.8-23.3,15.3-42.1C-99.9,1237.7-99.6,1225.5-102.9,1211.8L-102.9,1211.8z M-90.6,1393.3
		c12.7,0.8,25,3,32,5.5c-9.4,15.9-21.7,29.9-36.5,41v-0.1c0,0-0.1,0.1-3-1.2c-2.9-1.3-7.7-4-13.9-10.1c-0.1-0.1-0.2-0.2-0.3-0.3
		c-10.8-9.6-12-17.6-9.4-23C-119.1,1399.7-110,1393.4-90.6,1393.3L-90.6,1393.3z M-227,1555.5h97l4.1,13.9H-231L-227,1555.5z"/>
</g>
</svg>
