<?xml version="1.0" encoding="utf-8"?>
<!-- Generator: Adobe Illustrator 19.0.0, SVG Export Plug-In . SVG Version: 6.00 Build 0)  -->
<svg version="1.1"
	 id="Layer_1" xmlns:rdf="http://www.w3.org/1999/02/22-rdf-syntax-ns#" xmlns:svg="http://www.w3.org/2000/svg" xmlns:sodipodi="http://sodipodi.sourceforge.net/DTD/sodipodi-0.dtd" xmlns:dc="http://purl.org/dc/elements/1.1/" xmlns:inkscape="http://www.inkscape.org/namespaces/inkscape" xmlns:cc="http://creativecommons.org/ns#"
	 xmlns="http://www.w3.org/2000/svg" xmlns:xlink="http://www.w3.org/1999/xlink" x="0px" y="0px" viewBox="-421.3 225.3 84.7 85"
	 style="enable-background:new -421.3 225.3 84.7 85;" xml:space="preserve">
<style type="text/css">
	.st0{fill:#1DA2FF;}
</style>
<path class="st0" d="M-351.5,229c-2.9,0-5.9,1.1-8.2,3.3c0,0,0,0,0,0l-16.9,17.3l-4.8-1.6c-0.7-0.2-1.5,0-2,0.5l-6,6
	c-0.8,0.8-0.8,2,0,2.8l6.6,6.6l-20.8,20.8l-4-0.8c-0.8-0.2-1.6,0.1-2,0.8l-8,11c-0.6,0.8-0.5,1.9,0.2,2.6l8,8
	c0.7,0.7,1.8,0.8,2.6,0.2l11-8c0.6-0.5,0.9-1.3,0.8-2l-0.8-4l20.8-20.8l6.6,6.6c0.8,0.8,2,0.8,2.8,0l6-6c0.5-0.5,0.7-1.3,0.5-2
	l-1.6-4.8l17.3-16.9c4.6-4.4,4.5-11.8,0-16.3C-345.6,230.1-348.6,229-351.5,229z M-351.5,233c1.9,0,3.8,0.8,5.3,2.3
	c3,3,3,7.7,0,10.6l-18.2,17.8c-0.5,0.5-0.7,1.3-0.5,2.1l1.6,4.8l-3.7,3.7l-18.2-18.2l3.7-3.7l4.8,1.6c0.7,0.2,1.5,0,2.1-0.5
	l17.8-18.2C-355.3,233.7-353.4,233-351.5,233z M-356,239c-0.5,0-1,0.2-1.4,0.6l-12,12c-0.9,0.7-1,2-0.3,2.8s2,1,2.8,0.3
	c0.1-0.1,0.2-0.2,0.3-0.3l12-12c0.8-0.8,0.8-2,0-2.8C-354.9,239.2-355.5,239-356,239z M-352,243c-0.5,0-1,0.2-1.4,0.6l-12,12
	c-0.9,0.7-1,2-0.3,2.8c0.7,0.9,2,1,2.8,0.3c0.1-0.1,0.2-0.2,0.3-0.3l12-12c0.8-0.8,0.8-2,0-2.8C-350.9,243.2-351.5,243-352,243z
	 M-380,266.8l2.2,2.2l-21.6,21.6c-0.5,0.5-0.7,1.2-0.6,1.8l0.8,3.7l-8.6,6.3l-5.6-5.6l6.3-8.6l3.7,0.8c0.7,0.1,1.3-0.1,1.8-0.6
	L-380,266.8z"/>
</svg>
