<?xml version="1.0" encoding="utf-8"?>
<!-- Generator: Adobe Illustrator 19.0.0, SVG Export Plug-In . SVG Version: 6.00 Build 0)  -->
<svg version="1.1" id="Layer_1" xmlns="http://www.w3.org/2000/svg" xmlns:xlink="http://www.w3.org/1999/xlink" x="0px" y="0px"
	 viewBox="-255 334 100 101" style="enable-background:new -255 334 100 101;" xml:space="preserve">
<style type="text/css">
	.st0{fill:#1DA2FF;}
</style>
<g>
	<path class="st0" d="M-162.7,418.8c0-0.3,0-0.5,0-0.8v0c0-9.8-7.5-11.5-16.1-13.5c-1.2-0.3-2.4-0.6-3.7-0.9c-0.5-0.1-1-0.2-1.6-0.4
		c-1.8-0.4-3.7-0.9-5.5-1.5c-2.1-0.8-3.8-1.8-4.4-3.2c-0.4-0.9-0.5-2.7-0.3-4.1c0.1-0.6,0.6-1.4,1.2-2.2c0.3-0.4,0.5-0.8,0.8-1.1
		c1.4-2.3,2.3-4.3,2.9-6.5c0.2-0.5,0.3-1.1,0.4-1.7c0.1-0.5,0.2-1,0.3-1.5c1.4-0.6,2.8-2.8,3.6-5.7c0.3-1.2,0.5-2.4,0.5-3.5h-41
		c0,1,0.1,2.2,0.5,3.5c0.7,2.9,2.2,5.1,3.6,5.7c0.1,0.5,0.2,1,0.3,1.5c0.1,0.6,0.2,1.1,0.4,1.7c0.7,2.2,1.6,4.2,2.9,6.5
		c0.2,0.4,0.5,0.7,0.8,1.1c0.6,0.8,1.1,1.5,1.2,2.2c0.3,1.4,0.1,3.2-0.3,4.1c-0.6,1.5-2.3,2.5-4.4,3.2c-1.7,0.6-3.7,1.1-5.5,1.5
		c-0.6,0.1-1.1,0.3-1.6,0.4c-1.2,0.3-2.4,0.6-3.7,0.9c-8.6,2-16.1,3.7-16.1,13.5c0,0.2,0,0.5,0,0.8c0,0.2-0.1,0.4-0.1,0.5
		c0,5.3,19,9.6,42.4,9.6c23.4,0,42.4-4.3,42.4-9.6C-162.6,419.2-162.6,419-162.7,418.8z"/>
	<path class="st0" d="M-227.5,368.6h44.9c1.8,0,3.2-1.4,3.2-3.2c0-1.7-1.4-3.2-3.2-3.2h-0.9c0-8.4-4.8-15.7-11.8-19.2l-1.8,10.1
		c-0.1,0.8-0.8,1.4-1.6,1.4c-0.1,0-0.2,0-0.3,0c-0.9-0.2-1.5-1-1.3-1.9l2-11.6c-0.8-1.2-2.1-2-3.7-2h-6.1c-1.6,0-2.9,0.8-3.7,2
		l2,11.6c0.2,0.9-0.4,1.8-1.3,1.9c-0.1,0-0.2,0-0.3,0c-0.8,0-1.5-0.6-1.6-1.4l-1.8-10.1c-7,3.6-11.8,10.8-11.8,19.2h-0.9
		c-1.7,0-3.2,1.4-3.2,3.2C-230.6,367.2-229.2,368.6-227.5,368.6z"/>
</g>
</svg>
