<?xml version="1.0" encoding="utf-8"?>
<!-- Generator: Adobe Illustrator 19.0.0, SVG Export Plug-In . SVG Version: 6.00 Build 0)  -->
<svg version="1.1" id="Layer_1" xmlns="http://www.w3.org/2000/svg" xmlns:xlink="http://www.w3.org/1999/xlink" x="0px" y="0px"
	 viewBox="0 0 302 47" style="enable-background:new 0 0 302 47;" xml:space="preserve">
<style type="text/css">
	.st0{fill:#1DA2FF;}
	.st1{fill:none;stroke:#1D1D1B;stroke-width:2;stroke-linecap:round;stroke-miterlimit:10;}
	.st2{opacity:0.1;fill:#909090;}
	.st3{fill:#FFFFFF;}
	.st4{fill:none;}
	.st5{font-family:'Karla-Bold';}
	.st6{font-size:23px;}
	.st7{font-family:'Karla-Regular';}
</style>
<g>
	<g>
		<g>
			<path class="st0" d="M23.9-444.4h70.9c-0.2,28.5,0.1,48.8-0.1,77.3c-23.7,0-47.3,0-71,0c0.3-12.8,0-25.6,0-38.4
				c20.1-0.1,40.2,0,60.3,0c0.3-6.5-0.4-13.5-4.5-18.8c-5.8-8.2-17.1-11.9-26.7-8.8c-8.8,2.6-15.5,10.6-16.8,19.7
				c-4-0.2-8.1-0.1-12.1,0C23.8-426.6,23.7-431.4,23.9-444.4z M40.3-396.9c3.3,4,7.4,7.4,12.5,8.9c4,1.4,8.2,1,12.4,1
				c0-3.3,0-6.6,0-9.9C56.8-396.9,48.6-396.9,40.3-396.9z M90.1-371.4"/>
		</g>
		<path class="st0" d="M46.3-413.7c1.7-5.9,7.2-10.8,13.6-10.6c6.4-0.3,12.1,4.5,13.8,10.5C64.6-413.7,55.4-413.4,46.3-413.7z"/>
	</g>
</g>
<rect x="99.4" y="-437.1" class="st4" width="164.9" height="77.5"/>
<text transform="matrix(1 0 0 1 99.3923 -411.5403)"><tspan x="0" y="0" style="font-family:'NeoSans'; font-size:36px;">Kitchens</tspan><tspan x="0" y="33" style="font-family:'NeoSans'; font-size:36px;">EXPERT</tspan></text>
<rect x="32.5" y="-350" class="st4" width="124.7" height="20.8"/>
<text transform="matrix(1 0 0 1 46.7463 -330.8301)" style="fill:#1D1D1B; font-family:'NeoSans'; font-size:27px;">Kitchens</text>
<rect x="32.5" y="-319.8" class="st4" width="124.7" height="20.8"/>
<text transform="matrix(1 0 0 1 58.6125 -300.5801)" style="fill:#1D1D1B; font-family:'NeoSans'; font-size:27px;">Expert</text>
<line class="st1" x1="34.7" y1="-324.3" x2="155.2" y2="-324.3"/>
<rect x="148.5" y="-257.3" class="st0" width="118.3" height="63.1"/>
<rect x="155.6" y="-249.5" class="st4" width="103.4" height="20.8"/>
<text transform="matrix(1 0 0 1 155.6462 -230.3301)" class="st3" style="font-family:'NeoSans'; font-size:27px;">Kitchens</text>
<rect x="155.6" y="-226" class="st4" width="93.9" height="20.8"/>
<text transform="matrix(1 0 0 1 155.6462 -206.8301)" class="st3" style="font-family:'NeoSans-Bold'; font-size:27px;">Expert.</text>
<rect x="272.5" y="-256.5" class="st0" width="115.3" height="61.5"/>
<rect x="278.1" y="-249.5" class="st4" width="103.4" height="20.8"/>
<text transform="matrix(1 0 0 1 278.1462 -230.9365)" class="st3" style="font-family:'HelveticaNeueLTPro-Roman'; font-size:26px;">Kitchens</text>
<g>
	<rect x="278.1" y="-226" class="st4" width="93.9" height="20.8"/>
	<text transform="matrix(1 0 0 1 278.1462 -207.4365)" class="st3" style="font-family:'HelveticaNeueLTPro-Bd'; font-size:26px;">Expert.</text>
</g>
<image style="overflow:visible;" width="449" height="49" xlink:href="banner.png"  transform="matrix(1 0 0 1 17 -168.5)">
</image>
<rect x="148.5" y="-158" class="st0" width="304.8" height="32.7"/>
<rect x="189.3" y="-151.3" class="st4" width="264" height="35.3"/>
<text transform="matrix(1 0 0 1 189.3335 -136.3509)" class="st3 st7" style="font-size:22px;">Sit back and relax</text>
<path class="st2" d="M517.3-245.3c-12.8,0-23.3,10.4-23.3,23.3c0,16.8,19.3,34.4,23.3,34.4s23.3-17.6,23.3-34.4
	C540.5-234.9,530.1-245.3,517.3-245.3z M525.6-210.8c-7.7,7.2-20.8,0.6-21.9-9.2c-0.8-6.4,2.6-10.6,7.3-12.9c2.8-4,7.5-6.4,12.6-3.6
	C532.7-231.3,532.7-217.5,525.6-210.8z"/>
<path class="st3" d="M517.3-244.3c-12.3,0-22.3,10-22.3,22.3c0,16.1,18.8,33.4,22.3,33.4s22.3-17.3,22.3-33.4
	C539.5-234.4,529.5-244.3,517.3-244.3z M517.3-215.3c-4.8,0-8.7-3.9-8.7-8.7s3.9-8.7,8.7-8.7s8.7,3.9,8.7,8.7S522-215.3,517.3-215.3
	z"/>
<image style="overflow:visible;" width="302" height="47" xlink:href="../../../Desktop/message-this-business.png"  transform="matrix(1 0 0 1 46.5 -66.11)">
</image>
<path class="st0" d="M296.9,47H5.1C2.3,47,0,44.7,0,41.9V5.1C0,2.3,2.3,0,5.1,0h291.8c2.8,0,5.1,2.3,5.1,5.1v36.8
	C302,44.7,299.7,47,296.9,47z"/>
<rect y="17.3" class="st4" width="301.8" height="28.7"/>
<text transform="matrix(1 0 0 1 28.7881 33.1104)"><tspan x="0" y="0" class="st3 st5 st6">Message</tspan><tspan x="95.5" y="0" class="st3 st7 st6"> this business</tspan></text>
</svg>
