<?xml version="1.0" encoding="utf-8"?>
<!-- Generator: Adobe Illustrator 19.0.0, SVG Export Plug-In . SVG Version: 6.00 Build 0)  -->
<svg version="1.1" id="Layer_1" xmlns="http://www.w3.org/2000/svg" xmlns:xlink="http://www.w3.org/1999/xlink" x="0px" y="0px"
	 viewBox="-247 358.9 100 99.6" style="enable-background:new -247 358.9 100 99.6;" xml:space="preserve">
<style type="text/css">
	.st0{fill:none;stroke:#000000;stroke-width:2;stroke-linecap:round;stroke-linejoin:round;stroke-miterlimit:10;}
</style>
<rect x="-237" y="376.4" class="st0" width="80" height="55"/>
<path class="st0" d="M-190.7,376.4v21.2h33.7v-21.2H-190.7z M-190.7,431.4h33.7v-21.2h-33.7V431.4z M-237,397.6h33.8v-21.2H-237
	V397.6z M-237,431.4h33.8v-21.2H-237V431.4z"/>
<path class="st0" d="M-237,371.4v75V371.4z"/>
<polygon class="st0" points="-203.2,397.6 -203.2,394.9 -229.7,376.4 -237,376.4 -237,380.5 -212.5,397.6 "/>
<polygon class="st0" points="-203.2,410.1 -212.5,410.1 -237,427.3 -237,431.4 -229.7,431.4 -203.2,412.8 "/>
<polygon class="st0" points="-164.3,376.4 -190.7,394.9 -190.7,397.6 -181.5,397.6 -157,380.5 -157,376.4 "/>
<polygon class="st0" points="-190.7,410.1 -190.7,412.8 -164.3,431.4 -157,431.4 -157,427.3 -181.5,410.1 "/>
</svg>
