<?xml version="1.0" encoding="utf-8"?>
<!-- Generator: Adobe Illustrator 19.0.0, SVG Export Plug-In . SVG Version: 6.00 Build 0)  -->
<svg version="1.1" id="Layer_1" xmlns="http://www.w3.org/2000/svg" xmlns:xlink="http://www.w3.org/1999/xlink" x="0px" y="0px"
	 viewBox="-429 218 100 98" style="enable-background:new -429 218 100 98;" xml:space="preserve">
<style type="text/css">
	.st0{fill:#1DA2FF;}
</style>
<title>Artboard 42</title>
<path class="st0" d="M-379,220c-26.5,0-48,21.5-48,48s21.5,48,48,48s48-21.5,48-48S-352.5,220-379,220z M-414.5,274h12.5
	c0.9,9.5,3.8,18.7,8.7,27C-404.5,296.1-412.4,286-414.5,274z M-402,262h-12.5c2-12,10-22.1,21.1-27
	C-398.2,243.3-401.1,252.5-402,262z M-379,300.9c-6.1-7.8-9.9-17.1-11-26.9h22C-369.1,283.8-372.9,293.1-379,300.9z M-390,262
	c1.1-9.8,4.9-19.1,11-26.9c6.1,7.8,9.9,17.1,11,26.9H-390z M-364.7,301c4.8-8.3,7.8-17.5,8.7-27h12.5
	C-345.6,286-353.5,296.1-364.7,301z M-356,262c-0.9-9.5-3.8-18.7-8.7-27c11.2,4.9,19.1,15,21.1,27H-356z"/>
</svg>
