<?xml version="1.0" encoding="utf-8"?>
<!-- Generator: Adobe Illustrator 19.0.0, SVG Export Plug-In . SVG Version: 6.00 Build 0)  -->
<svg version="1.1" id="Layer_1" xmlns="http://www.w3.org/2000/svg" xmlns:xlink="http://www.w3.org/1999/xlink" x="0px" y="0px"
	 viewBox="-420.3 229.3 82.7 82.3" style="enable-background:new -420.3 229.3 82.7 82.3;" xml:space="preserve">
<style type="text/css">
	.st0{fill:#1DA2FF;}
</style>
<g>
	<path class="st0" d="M-362,279.7h11.1c0.6,0,1-0.4,1-1v-20.4c0-0.6-0.4-1-1-1H-362c-0.6,0-1,0.4-1,1v20.4
		C-363,279.2-362.5,279.7-362,279.7z M-361,259.3h9.1v18.4h-9.1V259.3z"/>
	<path class="st0" d="M-341.5,231.5h-76.8c-0.6,0-1,0.4-1,1v6.4v13.2c0,0.6,0.4,1,1,1h2.6v53.6c0,0.6,0.4,1,1,1h0.1h46.9h22.6
		c0.6,0,1-0.4,1-1v-53.6h2.6c0.6,0,1-0.4,1-1v-13.2v-6.4C-340.5,232-341,231.5-341.5,231.5z M-417.3,239.9h6.4v11.2h-3.8h-2.6
		C-417.3,251.1-417.3,239.9-417.3,239.9z M-351.6,251.1h-6.7v-11.2h6.7V251.1z M-360.4,251.1h-6.4v-11.2h6.4V251.1z M-368.7,251.1
		h-6.7v-11.2h6.7V251.1z M-377.4,251.1h-6.4v-11.2h6.4V251.1z M-385.7,251.1h-6.2v-11.2h6.2V251.1z M-393.9,251.1h-6.7v-11.2h6.7
		V251.1z M-402.6,251.1h-6.4v-11.2h6.4V251.1z M-368.7,305.7h-12.8c0,0,0,0,0-0.1v-12.8h3.9c0.6,0,1-0.4,1-1c0-0.6-0.4-1-1-1h-9.8
		c-0.6,0-1,0.4-1,1c0,0.6,0.4,1,1,1h3.9v12.8c0,0,0,0,0,0.1h-15.4c0,0,0,0,0-0.1v-12.8h3.9c0.6,0,1-0.4,1-1c0-0.6-0.4-1-1-1h-9.8
		c-0.6,0-1,0.4-1,1c0,0.6,0.4,1,1,1h3.9v12.8c0,0,0,0,0,0.1h-12.7v-19.1h44.9C-368.7,286.6-368.7,305.7-368.7,305.7z M-368.7,284.6
		h-45v-3h45V284.6z M-346.1,305.7h-20.6v-52.6h20.6V305.7z M-368.7,279.6h-45v-26.5h45V279.6z M-342.5,251.1h-2.6h-4.5v-11.2h7.1
		V251.1z M-342.5,237.9h-74.8v-4.4h74.8V237.9z"/>
</g>
</svg>
