<?xml version="1.0" encoding="utf-8"?>
<!-- Generator: Adobe Illustrator 19.0.0, SVG Export Plug-In . SVG Version: 6.00 Build 0)  -->
<svg version="1.1" id="Layer_1" xmlns="http://www.w3.org/2000/svg" xmlns:xlink="http://www.w3.org/1999/xlink" x="0px" y="0px"
	 viewBox="-399 181 160 150" style="enable-background:new -399 181 160 150;" xml:space="preserve">
<style type="text/css">
	.st0{fill:#1DA2FF;}
</style>
<path class="st0" d="M-256.8,293.4v-19.2c0-2-1.6-3.6-3.6-3.6h-5.3v-49c0-2-1.6-3.6-3.6-3.6h-34.4c-0.8,0-1.7,0.3-2.3,0.8
	l-28.9,24.4c-0.8,0.7-1.3,1.7-1.3,2.7v35.7h-6.6v-44.8l0,0l0,0V200c0-2-1.6-3.6-3.6-3.6h-12.9h-11.2h-12.9c-2,0-3.6,1.6-3.6,3.6
	v33.2h-7v7.2h44v53c-7.3,1.6-12.8,8.1-12.8,15.9c0,9,7.4,16.3,16.4,16.3c7.5,0,13.8-5.1,15.8-11.9h54.4c1.9,6.9,8.3,11.9,15.8,11.9
	c9,0,16.4-7.3,16.4-16.3C-244,301.5-249.5,295-256.8,293.4z M-260.4,318.5c-5.1,0-9.3-4.1-9.3-9.2c0-5.1,4.2-9.2,9.3-9.2
	s9.3,4.1,9.3,9.2C-251.2,314.3-255.3,318.5-260.4,318.5z M-329,247.6l26.6-22.4h29.6v45.5h-15.4v-16h-7.2v16h-8.1
	c-1.1,0-2.2,0.5-2.9,1.5l-7,9.5H-329V247.6z M-332.6,288.8h21c1.1,0,2.2-0.5,2.9-1.5l7-9.5h37.7v15.6c-6.4,1.4-11.5,6.7-12.6,13.2
	h-53.6c-1.1-6.5-6.1-11.7-12.6-13.2v-4.6H-332.6z M-337.1,309.3c0,5.1-4.2,9.2-9.3,9.2s-9.3-4.1-9.3-9.2c0-5.1,4.2-9.2,9.3-9.2
	S-337.1,304.2-337.1,309.3z M-362.9,203.5v4h-4.1v-4H-362.9z M-379.8,203.5h5.7v7.6c0,2,1.6,3.6,3.6,3.6h11.2c2,0,3.6-1.6,3.6-3.6
	v-7.6h5.7v29.6h-29.8V203.5z"/>
</svg>
